<?xml version="1.0" encoding="utf-8"?>
<!-- Generator: Adobe Illustrator 23.0.1, SVG Export Plug-In . SVG Version: 6.00 Build 0)  -->
<svg version="1.1" id="Layer_1" xmlns:serif="http://www.serif.com/"
	 xmlns="http://www.w3.org/2000/svg" xmlns:xlink="http://www.w3.org/1999/xlink" x="0px" y="0px" viewBox="0 0 590.1 464.8"
	 style="enable-background:new 0 0 590.1 464.8;" xml:space="preserve">
<style type="text/css">
	.st0{fill:#2092E5;}
</style>
<g id="layer101" transform="matrix(1.54906,0,0,1.54906,-216.835,-248.173)">
	<path class="st0" d="M381.7,460.2v-71.4l22.4,0.2c21,0.2,22.6,0.4,27.3,2c10,3.6,18.1,10.9,21.4,19.8c2.4,6.2,2.9,16.8,1.1,22.9
		c-3.5,12.2-11.6,20.1-24.9,24.5c-3.5,1.1-7.9,1.4-25.8,1.7L381.7,460.2z M421.8,442.2c8.4-2.5,12.2-8,12.2-17.7
		c0.1-6.7-1.1-10.2-4.7-13.8c-3.7-3.7-7.9-5-17.8-5.4l-9.1-0.5v38.5h7.9C414.9,443.3,419.7,442.8,421.8,442.2z"/>
	<path class="st0" d="M465.1,460.1v-71.1h55.8V405h-35.2v14.5l15.5,0.2l15.5,0.2v15.3l-15.5,0.2l-15.5,0.2v24.5H465.1z"/>
	<path class="st0" d="M148.8,457.1c-5.5-2.5-8.8-7.8-8.8-14c0.1-13.2,16.6-20,26-10.6c2.9,2.9,5,8.2,4.4,11.6
		c-0.2,1.8-0.2,1.8-11.5,2.1c-6.3,0.1-11.3,0.5-11.3,0.8c0,1.1,3.1,4.1,5.1,4.8c2.9,1.1,5.7,0.8,9-0.8l3.1-1.6l1.7,2.1
		c1,1.1,1.6,2.4,1.5,2.9c-0.2,0.4-1.8,1.5-3.6,2.4C160.3,459,153.2,459.2,148.8,457.1z M162.9,440c0-1.8-2.3-4.3-5-5.1
		c-3.3-1.1-7.4,0.1-9.2,2.5c-2.3,3.2-1.7,3.6,6.5,3.6C160.9,441,162.9,440.7,162.9,440z"/>
	<path class="st0" d="M176.7,458.6v-29.8h3.4c2.5,0,3.4,0.3,3.4,1.1c0,1.3,1.2,1.5,1.9,0.4c0.8-1.3,6.6-2.4,9.6-1.9
		c1.7,0.3,4.1,1.4,5.3,2.4l2.1,1.8l2.8-1.8c5.7-3.9,14.5-3,18.1,1.8c2.1,2.8,3.1,9.4,2.8,18.1l-0.2,7.5l-3.6,0.2l-3.7,0.2v-8.3
		c0-12.7-1.3-15.5-6.9-15.5c-1.7,0-3.1,0.7-4.7,2.2c-2.2,2.2-2.2,2.3-2.2,11.9v9.6h-7.7v-9.9c0-9.6-0.1-10.1-1.9-11.9
		c-2.2-2.3-6.3-2.5-8.7-0.5c-2.2,1.8-3.1,5.9-3.1,14.9v7.4H176.7z"/>
	<path class="st0" d="M256.1,457.5c-3-1.3-6.7-5-8-7.9c-1.5-3.6-1.4-9.7,0.5-13.2c4.4-8.6,17.6-11,24.5-4.6c2.9,2.7,2.9,3.5-0.2,5.4
		l-2.4,1.5l-2.2-1.9c-3.4-2.8-8.4-2.6-11.4,0.4c-1.8,1.8-2.2,2.9-2.2,5.7c0,4.7,1.2,7,4.4,8.5c3.2,1.5,6.9,1.1,9.3-1.2
		c1.7-1.6,1.9-1.6,4.4-0.5c1.5,0.7,2.6,1.8,2.6,2.3c0,1.4-3.7,4.9-6.3,5.8C266.2,458.8,258.7,458.7,256.1,457.5z"/>
	<path class="st0" d="M284.2,457.5c-3.1-1.4-5-4.4-5-7.9c0-6,4.1-8.6,13.4-8.6c5.6,0,5.7-0.1,5.7-1.8c0-1.1-0.8-2.4-1.7-3.1
		c-2.2-1.6-8.4-1.5-11.5,0c-1.9,1-2.4,1.1-3.1,0.2c-1.7-2.5-2.1-3.7-1.8-4.4c2.1-3.4,15.6-4.6,20.2-1.9c4.6,2.8,5.4,5.4,5.4,17.7
		v10.9h-3.4c-3,0-3.4-0.2-3.4-1.7c0-1.6,0-1.6-1.6-0.2C295.5,458.6,287.5,459,284.2,457.5z M296.3,451.6c1.4-1.1,2-2.3,2-3.9v-2.4
		l-5.1,0.5c-3.7,0.3-5.4,0.8-6.1,1.8c-1.3,1.8-1.3,2.3,0.5,4.1C289.6,453.7,293.7,453.7,296.3,451.6z"/>
	<path class="st0" d="M315.6,457.4c-4.2-1.5-4.6-2.1-3.2-4.9c1.5-2.8,1.6-2.8,5.3-1.2c2.8,1.1,8.6,1.5,10.8,0.7
		c1.9-0.8,1.5-4.1-0.5-4.4c-1-0.2-3.6-0.8-5.8-1.2c-7.4-1.5-10.1-3.7-10.1-8.4c0-6.2,4.7-9.6,13.4-9.5c3.1,0,6.6,0.5,8.3,1.3
		l2.8,1.2l-1.3,2.8c-1.1,2.2-1.6,2.7-2.9,2.3c-6.8-2.1-10.9-2.1-12.8,0.2c-1.4,1.7,1.5,3.7,6,4.4c9.9,1.5,13.8,6.2,10.5,12.7
		C333.8,457.9,323.1,460.1,315.6,457.4z"/>
	<path class="st0" d="M346.1,457.8c-4.5-1.8-6.9-7.9-4.7-12c1.8-3.4,5.4-4.8,12.6-4.8c5.5,0,6.2-0.2,6.2-1.4c0-0.8-0.7-2.1-1.5-3.1
		c-1.9-2.1-7.7-2.3-12-0.5c-1.5,0.6-2.8,1.1-2.9,1c-0.1-0.2-0.8-1.4-1.5-2.8l-1.3-2.5l3.5-1.5c9.8-4.4,20.1-1.5,22.4,6
		c0.5,1.7,0.9,7.3,0.9,12.7v9.6h-3.4c-2.4,0-3.6-0.4-3.9-1.1c-0.4-1-0.7-1-2.6,0C355.6,458.6,348.7,458.9,346.1,457.8z M357.2,452.1
		c2.3-1.1,3.1-2.5,3.1-5.1c0-1.5-0.3-1.5-5-1.2c-5.5,0.5-7.3,1.5-7.3,4.1C348.1,453.1,353,454.3,357.2,452.1z"/>
	<path class="st0" d="M180.9,422.1c-5.7-1.8-6.3-2.6-4.6-6.6c2-4.6,2-4.6,5.7-2.8c3.9,1.9,12.3,2.4,13.9,0.8
		c1.8-1.8-0.5-3.4-7.6-5.5c-3.8-1.1-7.8-2.6-8.8-3.2c-2.1-1.4-4.4-5.7-4.4-8.2c0-4.7,4.5-10.1,9.8-11.6c6.4-1.8,19.5-0.1,20.5,2.6
		c0.2,0.5-0.3,2.6-1.1,4.5l-1.5,3.6l-2.6-1.1c-6.6-2.7-13.2-2.1-13.2,1.1c0,1.6,0.6,2,3.8,2.9c8.6,2.3,11.6,3.4,13.6,5.4
		c6,5.7,2.7,16-6.1,18.4C194.2,423.7,185.4,423.4,180.9,422.1z"/>
	<path class="st0" d="M224.1,422.7c-8.6-2.7-13.9-9.8-13.9-18.8c0-11.1,7.3-18.6,19-19.4c6.4-0.4,11.6,1,15.6,4.4l2.7,2.2l-1.5,1.7
		c-0.8,0.9-2.4,2.4-3.6,3.2c-2.1,1.5-2.1,1.5-4.5-0.2c-3.1-2.2-8.2-2.8-11.2-1.1s-4.6,3.8-5,7.7c-1,7,3.7,12.3,10.3,11.6
		c2-0.2,4.6-1.1,6-2c2.4-1.7,2.4-1.7,4.5-0.2c1.1,0.8,2.8,2.3,3.6,3.2l1.5,1.7l-2.7,2.2c-1.5,1.1-4.2,2.7-6,3.4
		C235.2,423.4,227.4,423.7,224.1,422.7z"/>
	<path class="st0" d="M261.5,422.2c-4.3-1.6-8.1-4.7-10.4-8.7c-1.8-3.1-2.1-4.4-2.1-9.6c0-5.3,0.3-6.6,2.1-9.6
		c3.9-6.6,10.2-9.9,18.9-9.9c22,0.1,28.8,28,9,37.2C274.4,423.7,266.2,424,261.5,422.2z M276.5,411.2c2.1-2.2,2.4-2.8,2.4-7.3
		s-0.2-5.1-2.4-7.3c-4.4-4.4-12-3.6-15.1,1.5c-1.7,2.8-1.7,8.8,0,11.6C264.4,414.8,272.1,415.6,276.5,411.2z"/>
	<path class="st0" d="M141.5,422.6v-37.5h29.8v8.4H153v6.1H169v8.4H153v6.1h19.1v8.4H141.5z"/>
	<path class="st0" d="M295.3,422.6v-37.5h11.5v28.3h17.6v4.1c0.1,3.9,0.2,3.7,8-14l8-18l5.7-0.2l5.6-0.2l7.9,17.8
		c4.4,9.8,8.1,18.3,8.3,18.8c0.3,0.8-0.9,0.9-5.5,0.8l-6-0.2L355,419l-1.1-3.3h-15.6l-1.4,3.4l-1.3,3.4H295.3z M348.7,403.3
		c-0.9-2.2-1.8-4.7-2.1-5.5c-0.5-1.1-1-0.4-2.6,3.7c-1.1,2.8-2.1,5.2-2.1,5.4s1.9,0.4,4.2,0.4h4.2L348.7,403.3z"/>
	<path class="st0" d="M265.4,322.4c-1.5-1.5-1.5-2.5-1.5-45.9v-44.4h-6.1c-5.1,0-6.3-0.2-7.7-1.5c-1.5-1.5-1.9-3.4-1.1-5.7
		c0.5-1.2,19.2-16.4,61-49.6c10.5-8.3,19.7-15.1,20.4-15.1c1.8,0,79.8,62.1,81.1,64.6c1.2,2.3,0.5,5.4-1.7,6.6
		c-0.9,0.5-4.1,0.8-7.3,0.8l-5.6-0.1v5.4h-10.7V231c0-6.3,0.1-6.5,2.3-8.3l2.2-1.8l-29.6-23.7c-16.3-13-30.1-23.6-30.8-23.6
		s-14.5,10.6-30.8,23.6L270.1,221l2.2,1.8l2.3,1.8v88.7h61.2v10.7h-34.4C268,323.9,266.9,323.8,265.4,322.4z"/>
	<path class="st0" d="M284.6,302.3c0-1.7,4.7-8.1,8.7-11.9c5.6-5.3,12.4-8.5,21-9.6c7.7-1.1,19.5,2.6,26.5,8.4
		c3.5,2.8,9.6,11.1,9.6,13c0,0.9-5.4,1.1-32.9,1.1C293,303.3,284.6,303,284.6,302.3z"/>
	<path class="st0" d="M349.1,295.7c-0.9-0.8-1.5-1.6-1.2-1.9c0.3-0.2,3-0.5,6.1-0.5c4.4,0,5.6-0.2,5.6-1.1c0-0.9-1.4-1.1-7.7-1.1
		h-7.7l-4.6-4c-2.4-2.2-4.5-4.3-4.5-4.6c0-0.4,9-0.5,20-0.5l20,0.2l4.5,6.3c2.5,3.6,4.3,6.8,4.1,7.5c-0.3,0.9-3.2,1.1-16.7,1.1
		C352.3,297.1,350.6,297,349.1,295.7z"/>
	<path class="st0" d="M309,277.4c-13.7-7.1-13.7-26.1,0-33.2c9.6-5,21.2-1,25.8,8.9c4.4,9.5-0.3,21.3-10.1,25.4
		C320.3,280.3,313.6,279.9,309,277.4z"/>
	<path class="st0" d="M330.1,279.5l4.3-3.8H371v-26l-17.7-0.2c-17.4-0.2-17.7-0.2-18.9-2l-1.1-1.7l20.6,0.2l20.6,0.2v32.9l-22.2,0.2
		L330.1,279.5z"/>
	<path class="st0" d="M339.3,274.3c-0.8-1.1,3.2-5.3,5.9-6.3l2.5-0.9l-2.1-2.1c-2.8-2.8-2.8-5.5,0.1-8.4c1.4-1.3,3.1-2.2,4.3-2.2
		c2.6,0,6.5,3.8,6.5,6.3c0,2.3-2.7,5.9-4.4,5.9c-0.7,0.1,0.1,0.5,1.8,1.1c3.2,1.1,7.6,5.3,6.9,6.5
		C360.1,275.2,339.9,275.2,339.3,274.3z"/>
</g>
</svg>
