<?xml version="1.0" encoding="utf-8"?>
<!-- Generator: Adobe Illustrator 23.0.1, SVG Export Plug-In . SVG Version: 6.00 Build 0)  -->
<svg version="1.1" id="Layer_1" xmlns:serif="http://www.serif.com/"
	 xmlns="http://www.w3.org/2000/svg" xmlns:xlink="http://www.w3.org/1999/xlink" x="0px" y="0px" viewBox="0 0 424.8 682.4"
	 style="enable-background:new 0 0 424.8 682.4;" xml:space="preserve">
<style type="text/css">
	.st0{fill:#2092E5;}
</style>
<g id="layer101">
</g>
<g id="layer102">
	<path class="st0" d="M310,681.9c-1.3-0.2-1.8-0.7-1.5-1.6c0.2-0.7,0.5-1.3,0.5-1.4s1.3,0,3,0.2c2.3,0.2,2.9,0.1,2.6-0.7
		c-0.2-0.7-1.2-1.2-2.1-1.4c-1.9-0.3-2.5-2.1-0.9-3.1c0.5-0.2-0.6-1.2-2.5-2.1c-4.6-2.1-6.7-5.7-6.7-11.7c0-3.4,0.5-5.6,1.6-7.5
		c4.4-7.2,17.1-7,20.7,0.3c1.7,3.5,1.3,4.2-2.1,4.2c-2.1,0-3.1-0.6-4.1-2.1c-1.9-2.8-5.6-2.8-7.8,0.1c-4.4,5.7,0.5,15.1,6.1,11.5
		c1.2-0.7,2.1-1.9,2.1-2.5c0-0.9,1-1.2,3.5-1.2c2.5,0,4-0.5,5.5-2c1.5-1.4,3.7-2.3,7.4-2.9c6.1-1,7.5-1.9,6.2-4
		c-1.4-2.1-5.8-2.3-6.9-0.2c-1.2,2.4-7.4,2.5-7.4,0.2c0-1.9,2.8-4.9,5.5-6c5.1-1.9,14-0.1,15.8,3.2c0.5,1,0.9,6,0.9,11.2v9.5h-3.3
		c-1.8,0-3.3-0.3-3.3-0.7c0-0.5-1-0.2-2.2,0.4c-1.3,0.6-4.1,1.2-6.2,1.2c-4.7,0-8-2.6-8-6.3l-0.1-2.3l-1.2,2.6c-1.2,3-5.5,6-8.4,6
		c-1,0-2.1,0.4-2.3,0.8c-0.2,0.5,0.3,0.8,1.4,0.8c4,0,5.4,4.6,2.1,6.9C316,682.5,313.8,682.7,310,681.9z M340.4,666.3
		c0.8-0.7,1.5-2.2,1.5-3.3c0-1.8-0.2-2-2.6-1.5c-4.7,0.9-5.4,1.2-5.9,2.6C332.1,667.3,337.4,669,340.4,666.3z"/>
	<path class="st0" d="M155.3,680.8V648h3.3c1.8,0,3.3,0.3,3.3,0.7c0,0.4,1.2,0.2,2.5-0.5c4-2,8.8-1,12,2.5c1.5,1.6,2.7,3.7,2.7,4.5
		c0,0.9,0.4,1.9,0.8,2.1c0.5,0.2,0.8-0.2,0.8-1c0-4.6,6.1-9.3,12.1-9.3c6.6,0,11.6,4.4,12.3,10.9c0.6,4.7-0.8,8.7-3.9,11.7
		c-3.1,3-10.5,3.9-14.6,1.7c-2.8-1.4-5.9-5.3-5.9-7.4c0-0.7-0.3-1.3-0.8-1.3c-0.4,0-0.8,0.6-0.8,1.2c0,2.4-2.5,6.2-4.9,7.4
		c-3.1,1.6-8.1,1.6-10.5-0.1l-1.8-1.2v10.8H155.3z M170.5,665.6c1.6-1.5,2.1-2.9,2.1-5.5c0-4.8-1.8-7.2-5.3-7.2
		c-3.5,0-5.3,2.4-5.3,7.2c0,2.6,0.5,4,2.1,5.5c1.1,1.2,2.5,2.1,3.3,2.1C168,667.7,169.5,666.8,170.5,665.6z M195.9,666
		c1.8-1.4,2.1-2.3,2.1-5.8c0-5.1-1.6-7.2-5.4-7.2c-3.5,0-5.3,2.5-5.3,7.2c0,2.6,0.5,4,2.1,5.5C191.8,668.1,193.1,668.2,195.9,666z"
		/>
	<path class="st0" d="M81.1,670.9c-2.1-1.6-2.1-2-2.1-9.9c0-8.1,0-8.1-2.1-8.1c-1.7,0-2.1-0.4-2.1-2.5c0-2.1,0.3-2.5,2.1-2.5
		c1.9,0,2.1-0.3,2.1-3.7v-3.7h6.6v3.7c0,3.5,0.1,3.7,2.5,3.7c2.2,0,2.5,0.2,2.5,2.5c0,2.2-0.2,2.5-2.5,2.5h-2.5v5.7
		c0,7,0.5,8.3,3,8.3c1.7,0,2,0.4,2,2.9c0,2.9,0,2.9-3.6,2.9C84.4,672.6,82.6,672.1,81.1,670.9z"/>
	<path class="st0" d="M95.6,671c-3.5-2.1-5.2-4.8-5.7-9.5c-1.2-10.4,9.8-17.9,18.4-12.7c3,1.8,5.8,7.2,5.9,10.9v2.2h-8.6
		c-9.1,0-9.9,0.4-7.5,3.7c1.4,2,6.4,2.1,8.5,0.2c1.6-1.5,6.7-1.9,6.7-0.6c0,1.6-2.7,5-5,6.2C105.1,673.1,98.7,673,95.6,671z
		 M106.9,656.5c0-0.2-0.4-1.2-0.8-2.1c-1.1-2-5.4-2.1-7.6-0.2c-2.4,2.1-1.7,2.7,3.5,2.7C104.7,657,106.9,656.8,106.9,656.5z"/>
	<path class="st0" d="M221.6,670.9c-3.3-2.5-4.6-5.8-4.6-11.3c0-9.6,7.5-15.2,15-11.3l2.2,1.2v-10.6h7.4v32.9h-3.3
		c-1.8,0-3.3-0.4-3.3-0.8c0-0.5-1.1-0.3-2.5,0.4C229.1,673.2,224.2,673,221.6,670.9z M232.1,666c1.8-1.4,2.1-2.3,2.1-5.8
		c0-4.8-1.6-7.2-4.8-7.2c-3.9,0.1-5.4,2.1-5.4,7.1c0,3.9,0.3,4.8,2,6.2C228.4,668.1,229.4,668.1,232.1,666z"/>
	<path class="st0" d="M249.4,671.8c-2.2-0.9-5-4-6.1-6.8c-3.1-8.1,1.8-16.7,10.1-17.6c6.8-0.8,12,3.5,13.2,11.1l0.6,3.5h-8.7
		c-8.1,0-8.7,0.1-8.7,1.6c0,3.7,6.2,5.1,9.4,2.1c1.2-1.2,7.1-1.8,7.1-0.7c0,1.6-3.2,5.4-5.4,6.5C258,672.7,252.1,673,249.4,671.8z
		 M258.7,655.2c-1.6-2.4-5.7-2.9-7.6-1.1c-2.2,2.3-1.5,2.9,3.7,2.9h5L258.7,655.2z"/>
	<path class="st0" d="M280,671c-1.8-1.5-2.2-2.4-2.2-5.3c0-4.4,2.1-6.7,6.9-7.4c6.7-1,8-1.4,8.5-2.5c1.2-3.3-5.4-5.1-7.3-2
		c-0.7,1.2-2,1.6-4.1,1.6c-2.5,0-3.1-0.3-3.1-1.6c0-2,2.5-4.7,5.4-5.8c5.8-2.2,15,0.2,16,4.1c0.3,1.2,0.6,6.1,0.7,10.9l0.1,8.9
		l-4.7-0.1c-2.6,0-6.8,0.2-9.3,0.5C282.9,672.7,281.9,672.5,280,671z M291.9,666.3c1.6-1.5,2.1-5.2,0.5-5.2c-2,0-7.1,1.7-7.6,2.5
		c-0.3,0.5-0.2,1.6,0,2.5C285.4,668.1,289.7,668.3,291.9,666.3z"/>
	<path class="st0" d="M356.9,671.3c-4.4-2.2-6.2-6.1-5.8-12.2c0.3-5.7,2-8.4,6.6-10.8c4.8-2.5,11.3-1.1,15.4,3.3
		c2.9,3.1,3.4,11.5,0.9,15.5C370.8,672.3,362.8,674.2,356.9,671.3z M366.6,666.1c1.6-1.3,2-2.4,2-5.7c0-4.8-2-7.6-5.4-7.6
		c-3.5,0-5.9,3.6-5.4,8.2C358.4,667,362.6,669.3,366.6,666.1z"/>
	<path class="st0" d="M39.5,671.8v-32.9h25.6l-0.2,3.1l-0.2,3l-8.8,0.2l-8.9,0.2v6.5h16.4v5.8H46.9v8.2H65v5.8H39.5z"/>
	<path class="st0" d="M115.1,671.8V648h3.7c2.1,0,3.7,0.4,3.7,0.8c0,0.5,1.1,0.3,2.5-0.4c3.8-2,9-1.2,10.8,1.5
		c0.2,0.5,1.4,0.1,2.7-1c2.7-2.1,6.9-2.2,10.3-0.5c3.1,1.6,4.1,5.3,4.1,15.4v8h-7.4v-7.9c0-8.7-0.7-11-3.7-11
		c-3.4,0-4.5,2.8-4.5,11.3v7.6h-6.6v-7.3c0-8.9-0.8-11.6-3.5-11.6c-3.7,0-4.7,2.2-4.7,10.9v8H115.1z"/>
	<path class="st0" d="M378,671.8v-7.4h7.4v7.4H378z"/>
	<path class="st0" d="M329.5,643.2c0-0.8,0.9-2.4,2.1-3.5c2-1.9,2.2-1.9,6.3-0.8c3.1,0.7,4.4,0.8,4.6,0.1c0.3-0.9,4.3-1.3,4.3-0.5
		c0,1.5-2.7,5.3-4,5.8c-0.8,0.2-3.1-0.2-5-0.9c-3.3-1.3-3.6-1.3-4.5-0.1C331.9,645.2,329.5,645.1,329.5,643.2z"/>
	<path class="st0" d="M47.7,636.1c0-0.2,1.2-2.2,2.5-4.5c2.4-3.9,2.7-4.1,6.2-4.1c2,0,3.6,0.2,3.6,0.4s-1.7,2.3-3.8,4.5
		c-2.9,3.1-4.4,4.1-6.2,4.1C48.8,636.5,47.7,636.3,47.7,636.1z"/>
	<path class="st0" d="M90,611.3c-0.9-0.2-3.7-0.7-6.2-1.2c-6-1.2-11.6-3.6-18.1-7.7c-13.1-8.4-22-22.3-25.2-39.4
		c-1.6-8.3-1.1-26.3,1-34.2c5.2-20,20-36.1,38.6-41.9c7.9-2.5,23.1-3.1,31.6-1.3c18.2,3.8,33,17.3,37.4,33.8c2.1,8.4,3,7.8-11.7,7.8
		h-12.9L123,523c-2.1-6-7.7-11.7-13.6-14c-3.8-1.4-5.9-1.6-12-1.4c-9.5,0.5-14.5,2.5-20.1,8.5c-8,8.4-11.1,19.1-10.4,35.2
		c0.6,14.2,3.7,22.4,11.3,29.7c6.2,5.9,10.5,7.3,21.7,7.3c7.5,0,9.7-0.3,12.8-1.7c7.8-3.6,13.2-10.9,14.4-19.4l0.6-3.9h-26.5v-20.5
		h50.9v66.5H135l-1-5.5c-0.6-3.1-1.2-6-1.6-6.6c-0.3-0.7-1.9,0.4-4.5,3c-7.5,7.5-18.2,11.6-30.1,11.4
		C94.5,611.7,90.9,611.5,90,611.3z"/>
	<path class="st0" d="M173.4,609.5V486.8l31.9,0.4c29.9,0.3,32.1,0.4,38,2.1c9.4,2.8,15.4,6.3,22.3,13.2
		c9.6,9.6,13.9,19.6,15.6,36.6c0.9,9.1,0,21.4-2.2,30.2c-3.7,14.5-13.8,27.8-25.8,33.6c-11.4,5.6-12.6,5.8-47.8,6.2L173.4,609.5z
		 M231.8,585.2c16.3-3.8,24.7-20,22.2-42.7c-1.7-15-6.4-23.5-15.7-28.3c-6.7-3.4-12.2-4.3-26.5-4.3h-11.3v76.4h13.4
		C222.1,586.4,229,586,231.8,585.2z"/>
	<path class="st0" d="M299.9,609.4V487h85.4v23h-58.3v27.9h51l-0.2,10.5l-0.2,10.4l-25.2,0.2l-25.3,0.2l-0.2,24.9l-0.2,24.8
		l-13.3,0.2L299.9,609.4z"/>
	<path class="st0" d="M39.5,427.9v-6.7H96c54.1,0.1,56.7,0,63-1.6c13.9-3.5,25.6-11.7,31.9-22.3c8.6-14.5,11-37.8,5.5-53.6
		c-5.7-16.4-19.3-31.2-36.6-39.7l-4.9-2.4l-4.6,4.6c-4.2,4.2-4.5,4.8-3.5,6.2c1.5,2.1,1.5,8.1-0.1,11.1c-3,5.8-11.7,8.1-16.6,4.4
		l-2.2-1.7l-1.7,2.5c-2.5,3.8-6.7,5.8-11.6,5.8c-3.8-0.1-4.4,0.2-5.6,2.1c-3.1,5.3-11.7,6.3-16.2,2c-6.8-6.6-3.5-17.3,5.8-18.8
		c4.2-0.7,4.5-3,0.7-4.4c-4-1.4-8.6-5.6-11.3-10.1l-2.3-4l-2.3,2.5l-2.4,2.5l1.7,1.8c4.5,5,5.8,12.8,2.8,18.6
		c-3,5.7-9.4,9.9-15.3,9.9c-3.5,0-8-1.8-10.8-4.4c-5.8-5.1-7.6-13.1-4.4-20c0.8-2,1.4-3.5,1.2-3.5c-0.2,0-1.8,1-3.5,2.1
		c-6,3.9-13.7,3.6-18.7-0.7c-5.7-4.9-7.3-11.9-4.4-18.2c2.1-4.4,4.9-6.9,10.1-8.7c3.6-1.2,4.4-1.9,5.3-4.3l1-2.9l-3-0.5
		c-8.5-1.4-16.6-11.3-16.6-20.4c0-2-0.3-3-0.8-2.7c-0.4,0.2-0.8,2.4-0.8,4.7c0,3.7-0.3,4.4-3.2,7.3c-2.8,2.9-3.6,3.2-7.1,3.2
		c-5.1,0-8.6-2.1-10.5-6.2c-2.6-5.4-0.3-11.7,5-14.4c2.5-1.2,2.5-1.3,2.1-5.8c-0.4-3.8-0.1-5.3,1.4-7.9c1.5-2.6,1.6-3.6,0.9-5
		c-1.4-2.6-1.1-8.5,0.7-11.2c2.1-3.2,5.8-5.4,9-5.4c3.8,0,3.6-2.5-0.2-3.8c-2.8-0.9-3.1-0.7-5.7,1.8c-2.4,2.4-3.4,2.8-6.6,2.8
		c-4.4,0-7.4-1.6-9.2-5c-3.8-7.4,1.7-15.4,9.9-14.5c3,0.4,3.5,0.2,4.7-1.9c3-5.3,11.2-7.1,16-3.5c1.7,1.2,5.6,6.9,5.6,8.3
		c0,0.1,2-0.2,4.4-0.4l4.4-0.6l3-8.7l-3-1.6c-6.3-3.2-11.5-11.9-11.5-19.3c0-1.5,0.5-4.4,1.2-6.4l1.2-3.9l-2.7-1.6
		c-1.6-1-2.9-2.1-3-2.6c-0.2-0.7-2-0.9-4.8-0.7c-3.5,0.2-4.9-0.2-6.7-1.6c-9-7-0.1-20.8,10.1-15.8c3,1.5,3.6,1.6,6.1,0.5
		c3.7-1.5,6.5-1.5,9.9,0.2c3,1.5,6.1,5.7,6.1,8.5c0,1.5,0.3,1.7,1.9,1.3c1-0.2,2.2-0.5,2.7-0.5c0.6,0,1.2-0.9,1.3-2
		c0.3-1.7-0.2-2.5-3.5-4.4c-4.1-2.5-6.5-6.4-7.1-11.7c-0.7-4.8,3-11.7,7.6-14.4c3.1-1.9,4.4-2.1,8.9-1.8c4.1,0.2,5.8,0.8,8.2,2.5
		c3.5,2.7,6.2,7.6,6.2,11.3c0,3.5,1.6,3.1,5-1.5l3-4l-3.5-1.9C75.1,110.9,68.8,102,67.8,94c-0.5-3.5-0.7-3.7-2.5-3
		C55,94.9,43.4,83.7,46.9,73.3C48.9,67,54.1,63,60.4,63c4.8,0,7.6,1.2,10.8,4.4l2.5,2.7l2.8-2.5l2.7-2.5L77,63.7
		c-5.8-4.3-7.1-14-2.6-19.9c3-3.9,6.6-5.8,11.6-5.8c5,0,8.6,1.8,11.7,5.8c2,2.5,2.3,3.8,2.3,8c0,2.8-0.3,5.7-0.7,6.5
		c-0.5,1-0.3,1.4,0.6,1.4c0.9,0,1.5-1.1,1.9-3c0.8-4.8,3.2-8.8,7.2-12.3c7.7-6.7,18-7,26.5-0.6c3.3,2.5,4.2,2.9,6.8,2.4
		c2.5-0.4,3.2-1,4.4-4.1c2-4.6,6.5-9.2,11.2-11.3c5.1-2.3,13.3-2.3,17.7,0l3.2,1.6l2.8-3.1c6.9-7.6,19.8-10,29.2-5.3
		c11.3,5.5,16.9,18.3,13.4,30.6c-1.2,3.8-1.2,3.9,0.2,2c2.1-3.3,6.7-7.3,10.4-9.3c4.9-2.6,17.4-2.6,22.4,0.1c4,2.1,4.4,2.1,4.4,0.7
		c0-0.6,1.3-2.6,3-4.6l3-3.5l-2.3-2.4c-3.5-3.6-3.9-10.4-1-14.7c2.2-3.4,6.5-5.8,10.1-5.8c1.2,0,3.9,0.7,5.8,1.7
		c6.6,3.2,8.8,12.2,4.4,18l-1.6,2.3l2.8,2.2c4.4,3.3,6.4,8,6,13.5l-0.4,4.6l3.1-3c3.3-3.2,6.7-4.2,11.2-3.2c2.3,0.6,2.7,0.4,2.7-0.8
		c0-2.3,3.9-6.3,7-7.4c6.1-2,12.7,2.8,12.7,9.2c0,6.1-4.5,10.5-10.6,10.5c-2.2,0-2.5,0.2-2.5,2.3c0,5.8-8,11.7-14.3,10.5
		c-6.2-1.2-10.8-7.3-10.1-13.4l0.4-3.6l-1.7,2.4c-3.2,4.4-6.9,6.3-12.4,6.3h-5l-1,5.2c-2.4,12.7-12,20.6-25,20.7
		c-5.3,0-7-0.3-11.3-2.5c-5.7-2.9-9.5-6.8-11.9-12.2c-2.1-4.9-2.6-12.6-1.1-17.7c1.2-3.9,1.2-4-0.2-2.1c-2.2,3.4-6.7,7.3-10.4,9.2
		c-7.2,3.7-19.3,2.7-26-2.2l-2.6-2l-3.2,2.5c-1.8,1.4-3.2,3-3.2,3.5c0,0.6,1.9,1,4.8,1c7.9,0.2,15.4,4.9,18.8,12.2
		c1.2,2.4,1.4,2.5,6.7,2.5c3,0.1,6.8,0.7,8.4,1.4c6.4,2.9,11.8,8.5,14,14.8c0.9,2.7,1.4,3,3.2,2.7c6.5-1.3,8.5-1.4,12.8-0.5
		c9,1.8,16.8,7.6,20.6,15.4c1.4,2.8,1.7,3,4.6,2.8c4.5-0.4,10.6,1.9,14,5.3c3.1,3.1,5.5,7.4,5.5,9.9c0,2.1,0.7,3,4.9,5.3
		c3.5,2.1,4.8,2.1,7.2,0.2c0.1-0.1-0.7-2-1.9-4.1c-1.2-2.1-2.1-4.9-2.1-6.2c0-2.1-0.2-2.3-4.1-2.6c-2.6-0.2-5-1.2-6.9-2.5
		c-3.4-2.6-5.8-8.4-5.2-12.3c0.4-2.5,0.2-2.8-3.2-4.2c-4.1-1.7-8.9-6.7-10.3-10.9c-1.6-4.8-0.6-12.7,2-16.6
		c4.7-7.1,13.6-10.4,21.4-8c5.6,1.6,9.1,4.7,11.7,9.9c1.9,3.8,2.2,5.3,1.9,9.3c-0.2,2.5-0.9,5.8-1.6,7.3c-1.3,2.6-1.3,2.7,1.5,5.6
		c1.5,1.6,3,4.2,3.3,5.7c0.5,2.7,0.6,2.8,3.6,2.4c11.6-1.6,21,11.8,15.6,22.3c-0.9,1.7-1.6,3.2-1.4,3.3c0.1,0.1,2,1.1,4.2,2.1
		c5.1,2.5,12.2,10.2,14.1,15.3c1.6,4.6,1.8,4.8,4.1,5.5c1.4,0.4,1.9,0.1,2.5-2.1c0.7-2.3,0.4-3.2-1.9-6.7c-1.5-2.1-3-5.3-3.5-7
		c-2.1-7.5,0.1-16.8,5.2-22.8c2.5-2.9,2.6-3.4,2-6.1c-0.8-2.9-0.9-3-5.1-3c-7.5,0-12.7-5.5-12.7-13.1c0-9.8,9.4-16,18.2-12.1
		c3.5,1.6,7.2,5.4,7.2,7.6c0,0.7,0.5,0.7,1.5,0.4c3.3-1.4,10.1-1.4,13.7,0c7.4,2.8,12.1,11.6,10.4,19.3c-0.7,3.4-0.7,3.8,1.6,6.3
		c3.8,4.4,5.8,9.2,6.3,14.7l0.4,5.1l2.5-0.7c9.3-2.7,20.3,2.1,25.6,11.3c2.6,4.4,3.5,12.5,2,17.3c-2.4,7.2-9.8,14.4-16,15.6
		l-2.6,0.5l0.1,5.5c0,5.8-1,9.2-4.2,14.1l-2,3l2.1,3.6c3.9,6.9,2.1,15.7-4.3,20c-1.7,1.2-3.5,2.1-3.9,2.1c-0.4,0-0.9,2-1,4.4
		c0,2.5-0.7,5.7-1.7,7.5l-1.6,3.2l2.5,1.6c4.3,3,5.9,5.9,5.9,10.8c0,9.8-9.8,15.5-18.4,10.9c-4.7-2.5-6.8-6.3-6.5-11.5
		c0.2-3.8,0.2-3.9-2.6-4.4c-1.6-0.3-4.1-1.2-5.6-2.1l-2.7-1.6l-3.2,2.1L355,262l2.4,3c4,5.2,5.3,8.4,5.7,15c0.5,8.1-1.2,13.3-6,18.6
		l-3.6,3.9l2.5,4.8c1.9,3.8,2.4,5.8,2.4,10c0,6.4-1.3,9.7-5.8,14.5c-7.8,8.5-21.5,8.9-29.9,0.9l-2.4-2.2l-3,1.7
		c-1.6,0.9-4.5,1.9-6.3,2.2c-3.1,0.5-3.4,0.7-3.8,3.7c-1.2,9.3-12.9,14-21.2,8.5c-3.6-2.4-6.5-7.4-6.5-11.5c0-5.4,4.8-12.1,9.4-13.2
		c1.6-0.4,2-1.2,2.3-5.1c0.2-2.5,0.7-5.4,1-6.4c0.5-1.6,0.2-1.8-4.1-2.2c-4.2-0.4-12.3-3.7-16.3-6.5c-1.2-0.9-2.1-0.7-6.2,1.4
		c-14.9,7.7-27.9,20-33.7,31.7c-5.3,10.7-6.3,15.7-6.2,29.1c0.2,13.6,1.7,20.9,7,30.8c6.2,12.2,18,20.8,33.2,24.6
		c6.3,1.6,8.9,1.7,63.1,1.6h56.4v6.7l-57.3-0.3c-64.1-0.3-62.4-0.2-75.4-6.3c-16.3-7.6-26-19.5-31-37.5c-2.6-9.8-2.6-30.2,0-39.3
		c5.4-18.9,18.1-33.3,39.7-45.5l4.7-2.6l-2.4-4.3c-1.3-2.4-2.5-6-2.9-8.1c-0.2-2.1-0.8-4.3-1.2-4.8c-0.9-1.5-3.3-0.4-3.3,1.4
		c0,0.8-0.9,2.9-2,4.4c-5.5,8.1-18.7,7.5-23.5-1.1c-3.4-6.1-1.8-14.6,3.5-18.2c2.3-1.6,1.3-4.8-1.3-4.1c-1.1,0.2-4-0.3-6.7-1.2
		c-4.8-1.6-4.8-1.6-6.5-0.1c-2.2,2.1-7.2,4.1-10,4.1c-3.3-0.1-8.7-2.7-10.8-5.3c-1.7-2.2-2-2.2-5-1.4c-1.7,0.6-4.1,1-5.3,1
		c-2,0-2.1,0.1-1.3,3.5c0.9,3.7,0.3,9.5-1.3,13.5c-0.9,2.2-0.8,2.7,0.9,4.8c3,3.4,2.8,10.1-0.2,13.7c-2.5,2.9-6.4,4.8-9.8,4.8
		c-2.9,0-8.1-3-9.4-5.4c-0.8-1.6-1.6-2-4.5-2c-1.9,0-4-0.2-4.8-0.5c-1.1-0.4-1.3,0.1-1.3,2.3c0,2.6,0.3,3,4.4,4.8
		c7.1,3.3,18,10.9,23.8,16.8c15.9,15.9,22.5,35.7,19.5,58.7c-2.1,16.3-6.8,26.6-16.8,36.6c-7.5,7.6-15.6,12.2-27.1,15.3
		c-6.4,1.8-7.8,1.8-63.8,2.1L39.5,427.9z M126.8,310.8c0.2-0.7,0.2-1.4,0-1.6c-0.7-0.7-2.8,1.2-2.2,2.1
		C125.3,312.3,126.3,312.1,126.8,310.8z M321.3,303.2c-0.1-0.4-1.2-1.9-2.5-3.5c-2.4-2.8-2.5-2.8-4-1.4c-1.6,1.5-1.6,1.6,1.8,3.4
		C320.4,303.8,321.3,304.1,321.3,303.2z M91.7,278.7c1.6-1.6,1.7-2.1,0.8-2.9c-0.8-0.7-1.6-0.7-2.8,0c-1.8,0.9-2.1,1.6-1.2,3.6
		C89.1,281.1,89.5,281.1,91.7,278.7z M281.5,246.9c0.2-0.2-0.7-2.3-1.9-4.6l-2.3-4.3l-3,3.1l-3,3l1.6,2.1c0.9,1.2,1.6,2.5,1.6,3
		c0,0.7,1,0.6,3.3-0.5C279.6,248,281.2,247.1,281.5,246.9z M224.4,229.9c2.6-1.1,3.2-1.7,3.2-3.5c0-1.3-0.2-2.3-0.3-2.3
		c-0.2,0-2,0.7-3.9,1.6c-2.1,0.9-5.4,1.7-7.5,1.8l-3.9,0.2v4.2c0,3.8,0.2,4.2,2.3,4.9c2.1,0.7,2.4,0.5,4.5-2.4
		C220.2,232.7,222.6,230.7,224.4,229.9z M39.8,234.3c1.6-0.7,3-1.4,3-1.6c0-0.2,0.2-0.9,0.5-1.6c0.4-1-0.1-1.3-2-1.3
		c-1.4,0-3.5-0.3-4.5-0.7c-2.6-1.1-3.5,0.8-2.1,4.1C36,236,36,236,39.8,234.3z M182.8,207.5c2.1-0.4,4.8-0.5,5.8-0.2
		c1.7,0.4,1.8,0.2,2.2-5c0.4-4.2,1.1-6.4,3-9.6l2.6-4.2l-2-2.1c-1.2-1.2-2.7-3.2-3.5-4.6c-0.8-1.3-1.6-2.5-1.6-2.7
		c-0.1-0.2-2.1,1-4.4,2.6c-2.4,1.6-6.1,3.2-8.6,3.8c-3.9,0.8-5.9,0.7-10.5-0.6c-1.1-0.2-1.5,0.2-1.5,1.5c0,1-0.4,3.1-0.9,4.8
		c-0.9,3-0.9,3.1,2.9,6.6c2.1,2,5.2,5.3,6.8,7.6c2.1,2.9,3.3,3.9,4.3,3.5C178.2,208.5,180.6,207.9,182.8,207.5z M241.7,195.9
		c-0.1-0.3-0.8-2.2-1.7-4.4c-0.9-2.1-1.6-4.3-1.6-4.9c0-1.6-0.5-1.5-3.7,1.1l-2.8,2.2l1.6,2.2c0.9,1.3,2.1,3.5,2.5,4.8l0.9,2.5
		l2.5-1.6C240.6,197,241.7,196.1,241.7,195.9z M105.6,189.1c1-0.4,1.2-1.2,0.8-3.9c-0.5-3.2,0.4-9.4,1.7-12.9c0.4-1.1-0.2-1.5-3.5-2
		c-6.9-1-12.4-3.6-17.3-8.2c-3.9-3.6-5-4.2-6.5-3.6c-1.7,0.7-1.9,1.2-1.9,6.5c0,5.8,0,5.8,2.3,5.8c6,0,17,8.1,20.8,15.2
		c1.1,2.1,2.1,3.7,2.1,3.7C104.2,189.5,104.8,189.3,105.6,189.1z M158.2,148.6c4-3.5,8-5.1,13.1-5.1h4.4l2-4.4
		c1.2-2.5,3.6-5.9,5.5-7.7l3.4-3.4l-2.1-3.1c-1.1-1.7-2.5-4.7-3-6.6c-1.2-4.3-3.2-4.8-3.2-0.8c0,5.7-5.8,11.3-11.7,11.3
		c-3,0-3.1,0.2-3.1,2.7c0,3.9-3.4,10.4-7,13.6c-4.4,3.9-8.2,5.3-14.1,5.3c-4.2,0-5.1,0.2-5.4,1.5c-0.3,1.2,0.4,1.6,4.3,2.5
		c2.5,0.5,5.9,1.6,7.5,2.4l2.9,1.5l1.8-3.5C154.4,152.7,156.6,150,158.2,148.6z M132.8,111.5c3.8-2,5.7-2.5,9.9-2.5
		c3,0,6.7,0.6,8.3,1.2c2.8,1.2,3.1,1.2,3.8-0.1c1-1.7,3.3-4,5.1-5.1c2-1.1,1-3.9-1.1-3c-10.3,4.4-21.7,3-30.9-4.1l-2.8-2.1l-0.6,2.5
		c-0.3,1.4-1.8,4.4-3.3,6.6l-2.7,4.1l4.2,2.4c2.4,1.3,4.5,2.4,4.8,2.5C127.8,113.9,130.2,112.9,132.8,111.5z"/>
	<path class="st0" d="M260.8,350.5c-3.5-2.2-5.8-8-4.6-11.7c0.7-2.5,0.7-2.7-2.1-4c-3.6-1.7-5.8-5.3-5.8-9.3c0-6.4,4.2-10.3,11-10.3
		c3.2,0,4.2,0.4,6.7,3c2.7,2.8,3,3.3,2.6,7.4c-0.2,4.2-0.2,4.4,1.9,4.8c2.2,0.5,5.7,3.7,7.2,6.7c2.1,4.2,0,10.8-4.4,13.5
		C269.9,352.7,264.1,352.7,260.8,350.5z"/>
	<path class="st0" d="M242.3,346.7c-2.1-2.4-2.5-4.9-1.2-7.5c1.4-2.7,2.8-3.5,6.2-3.5c4.9,0,7.6,6.8,4.2,10.5
		C249.3,348.6,244.1,348.8,242.3,346.7z"/>
	<path class="st0" d="M152.1,344c-3.5-3.5-1.2-9,3.9-9c3.1,0,5.2,2.2,5.2,5.6C161.1,345.1,155.3,347.3,152.1,344z"/>
	<path class="st0" d="M164,335.6c-2.1-1.2-2.9-2.3-2.9-4.4c0-3.9,5.8-5.9,8.5-3c2.4,2.6,1.7,5.7-1.6,7.5
		C165.8,336.8,166,336.8,164,335.6z"/>
	<path class="st0" d="M153.8,321.5c-4.4-4.6-1.1-12.3,5.2-12.3c6.4,0,9.5,7.7,5,12.2C161.3,324.2,156.3,324.2,153.8,321.5z"/>
	<path class="st0" d="M195.3,316.4c-1.8-1.7-1.6-5.5,0.2-7.1c3.3-3,8.4-0.7,8.4,3.8c0,2.8-2,4.7-4.9,4.7
		C197.6,317.7,195.9,317.1,195.3,316.4z"/>
	<path class="st0" d="M213.8,313c-4.5-3.9-2-10.9,3.9-10.9c5.8,0,8.5,5.6,4.9,10.2C220.6,314.8,216.4,315.2,213.8,313z"/>
	<path class="st0" d="M193.5,302.6c-1.7-1.5-2.3-2.6-2.3-4.9c0-6.2,7.4-9,11.5-4.3c2.6,3,2.5,6.3-0.2,9
		C199.8,305.1,196.4,305.2,193.5,302.6z"/>
	<path class="st0" d="M13.5,182.5c-3.5-1.8-5.4-4.9-5.4-9c0-4.2,1.3-6.7,4.6-8.6c4.8-2.9,11.1-1.6,14,2.8c0.7,1.2,1.3,3.7,1.3,5.8
		C28,181,20,185.8,13.5,182.5z"/>
	<path class="st0" d="M312.5,115.1c-7.6-3.8-8-15.7-0.6-20.5c1.3-0.9,3.8-1.5,6.1-1.5c6.7,0,11.5,4.8,11.5,11.7
		C329.5,113.6,320.6,119.1,312.5,115.1z"/>
	<path class="st0" d="M33.4,112.2c-6.5-5.1-5.8-15.2,1.2-19c5.3-2.8,11.7-1.2,14.8,4c1.4,2.2,1.6,3.7,1.3,7.1
		c-0.3,3.5-0.8,4.6-3.4,6.9c-2.5,2.4-3.5,2.7-7.4,2.7C36.8,114,35.1,113.5,33.4,112.2z"/>
	<path class="st0" d="M321.5,90.6c-5.3-2.4-7.4-9.4-4.4-14.3c3.5-5.6,11.1-6.5,15.8-1.9C340.6,82.2,331.6,95.1,321.5,90.6z"/>
	<path class="st0" d="M347.3,86.8c-10.7-3.2-10.2-18.9,0.7-21.4c4-0.9,7.8,0.2,10.8,3.4c2.1,2.1,2.4,3.1,2.4,7.3
		c0,4.2-0.3,5.2-2.4,7.3c-1.4,1.4-3.8,3-5.3,3.4C350.1,87.7,350.5,87.7,347.3,86.8z"/>
	<path class="st0" d="M236.3,40.9c-5.8-1.5-11.4-6-14.1-11.5c-2.1-4.4-2-13.5,0.3-17.8c2.6-5,7.6-9.1,13.1-10.7
		c8.9-2.5,17.9,1,22.9,9c2,3.3,2.5,5.1,2.7,9.9c0.3,5,0,6.5-1.8,10C255,38.6,245.5,43.1,236.3,40.9z"/>
	<path class="st0" d="M120.8,35.3c-4.4-2.4-6.6-6.2-6.6-11.3c0-7.8,5.8-13.1,13.4-12.5c15.4,1.3,15.2,23.7-0.2,25
		C124.9,36.7,122.9,36.4,120.8,35.3z"/>
	<path class="st0" d="M152.4,23.6c-4.5-2.3-6.5-5.9-5.8-11.2c0.3-3.2,1-4.5,3.4-6.7c2.5-2.3,3.5-2.7,6.8-2.7c4.9,0,8.5,2.1,10.4,6.2
		C171.7,18.7,161.8,28.3,152.4,23.6z"/>
	<path class="st0" d="M187.6,17.3c-2.7-1.3-5.2-5.4-5.2-8.5c0-2.9,2.5-6.4,5.6-7.9c6.1-2.9,12.5,1.4,12.5,8.2c0,4.1-1.7,6.8-5.4,8.4
		C191.7,19,190.9,18.9,187.6,17.3z"/>
</g>
</svg>
