<?xml version="1.0" encoding="utf-8"?>
<!-- Generator: Adobe Illustrator 23.0.1, SVG Export Plug-In . SVG Version: 6.00 Build 0)  -->
<svg version="1.1" id="Layer_1" xmlns:serif="http://www.serif.com/"
	 xmlns="http://www.w3.org/2000/svg" xmlns:xlink="http://www.w3.org/1999/xlink" x="0px" y="0px" viewBox="0 0 451.8 415.9"
	 style="enable-background:new 0 0 451.8 415.9;" xml:space="preserve">
<style type="text/css">
	.st0{fill:#FFFFFF;}
</style>
<g transform="matrix(4.16667,0,0,4.16667,0,0)">
	<path class="st0" d="M15.1,88V69.3H22v18.2c0,4.7,2.2,6.9,6.1,6.9c4,0,5.9-2.3,5.9-7.2v-18h6.9v18.4c0,8.3-5,12.1-13,12.1
		C20.2,99.8,15.1,96.3,15.1,88z"/>
	<path class="st0" d="M61.3,99.4V85.9c0-3.2-0.9-4.9-3.6-4.9c-2.8,0-4.3,2.4-4.3,6.2v12.2h-6.8V81.6c0-2.4-0.1-4.1-0.1-5.3H53
		c0.1,0.8,0.3,3.4,0.3,4.7c1.2-3.7,4-5.2,7.4-5.2c5.8,0,7.5,3.9,7.5,8.2v15.3H61.3z"/>
	<path class="st0" d="M84.6,86.3h-3.8v8.1h4.1c3.2,0,5.3-1,5.3-4.1C90.1,87.2,87.6,86.3,84.6,86.3z M83.8,74.2h-3v7h3.1
		c3.3,0,4.7-1.1,4.7-3.5C88.5,75.1,87,74.2,83.8,74.2z M85.4,99.4H74V69.3h10.4c7,0,11,2.5,11,7.6c0,3.4-1.8,5.6-5.4,6.5
		c4.6,0.6,7.2,3.4,7.2,7.4C97.1,96.8,92.2,99.4,85.4,99.4z"/>
	<path class="st0" d="M91.7,19.7c-5.5,3.9-11.5,7.4-17.9,10.2c-3.2,1.4-6.6,2.3-10.2,2.8c-2.6,0.3-5.2,0.5-7.8,0.5v21.1h52.7V7.6
		L91.7,19.7L91.7,19.7z"/>
	<path class="st0" d="M16.7,19.7c5.5,3.9,11.5,7.4,17.9,10.2c3.2,1.4,6.6,2.3,10.2,2.8c2.6,0.3,5.2,0.5,7.8,0.5v21.1H0V7.6
		L16.7,19.7L16.7,19.7z"/>
	<path class="st0" d="M55.7,0v30.1c2.5,0,5-0.2,7.5-0.5c3.3-0.4,6.5-1.3,9.4-2.6c6.2-2.7,12-6,17.3-9.8l18.5-13.3V0H55.7z"/>
	<path class="st0" d="M52.7,0v30.1c-2.5,0-5-0.2-7.5-0.5c-3.3-0.4-6.5-1.3-9.4-2.6c-6.2-2.7-12-6-17.3-9.8L0,3.9V0H52.7z"/>
</g>
</svg>
