<?xml version="1.0" encoding="utf-8"?>
<!-- Generator: Adobe Illustrator 23.0.1, SVG Export Plug-In . SVG Version: 6.00 Build 0)  -->
<svg version="1.1" id="Layer_1" xmlns:serif="http://www.serif.com/"
	 xmlns="http://www.w3.org/2000/svg" xmlns:xlink="http://www.w3.org/1999/xlink" x="0px" y="0px" viewBox="0 0 258.4 261.5"
	 style="enable-background:new 0 0 258.4 261.5;" xml:space="preserve">
<style type="text/css">
	.st0{fill:#FFFFFF;}
</style>
<g id="layer101" transform="matrix(1.54906,0,0,1.54906,-216.835,-248.173)">
	<path class="st0" d="M158,322.4c-1.5-1.5-1.5-2.5-1.5-45.9v-44.4h-6.1c-5.1,0-6.3-0.2-7.6-1.5c-1.5-1.5-1.9-3.4-1.1-5.7
		c0.5-1.2,19.2-16.4,61-49.6c10.5-8.3,19.7-15.1,20.4-15.1c1.8,0,79.8,62.1,81.1,64.6c1.2,2.3,0.5,5.4-1.7,6.6
		c-0.9,0.5-4.1,0.8-7.3,0.8l-5.6-0.1v5.4h-10.7V231c0-6.3,0.1-6.5,2.3-8.3l2.2-1.8l-29.6-23.7c-16.3-13-30.1-23.6-30.8-23.6
		s-14.5,10.6-30.8,23.6L162.6,221l2.2,1.8l2.3,1.8v88.7h61.2v10.7h-34.4C160.5,323.9,159.4,323.8,158,322.4z"/>
	<path class="st0" d="M177.1,302.3c0-1.7,4.7-8.1,8.7-11.9c5.6-5.3,12.4-8.5,21-9.6c7.7-1.1,19.5,2.6,26.5,8.4
		c3.5,2.8,9.6,11.1,9.6,13c0,0.9-5.4,1.1-32.9,1.1C185.5,303.3,177.1,303,177.1,302.3z"/>
	<path class="st0" d="M241.6,295.7c-0.9-0.8-1.5-1.6-1.2-1.9c0.3-0.2,3-0.5,6.1-0.5c4.4,0,5.6-0.2,5.6-1.1c0-0.9-1.4-1.1-7.7-1.1
		h-7.6l-4.6-4c-2.4-2.2-4.5-4.3-4.5-4.6c0-0.4,9-0.5,20-0.5l20,0.2l4.5,6.3c2.5,3.6,4.3,6.8,4.1,7.5c-0.3,0.9-3.2,1.1-16.7,1.1
		C244.9,297.1,243.1,297,241.6,295.7z"/>
	<path class="st0" d="M201.5,277.4c-13.7-7.1-13.7-26.1,0-33.2c9.6-5,21.2-1,25.8,8.9c4.4,9.5-0.3,21.3-10.1,25.4
		C212.8,280.3,206.2,279.9,201.5,277.4z"/>
	<path class="st0" d="M222.6,279.5l4.3-3.8h36.6v-26l-17.7-0.2c-17.4-0.2-17.7-0.2-18.9-2l-1.1-1.7l20.6,0.2l20.6,0.2v32.9
		l-22.2,0.2L222.6,279.5z"/>
	<path class="st0" d="M231.9,274.3c-0.8-1.1,3.2-5.3,5.9-6.3l2.5-0.9l-2.1-2.1c-2.8-2.8-2.8-5.5,0.1-8.4c1.4-1.3,3.1-2.2,4.3-2.2
		c2.6,0,6.5,3.8,6.5,6.3c0,2.3-2.7,5.9-4.4,5.9c-0.7,0.1,0.1,0.5,1.8,1.1c3.2,1.1,7.6,5.3,6.9,6.5
		C252.6,275.2,232.4,275.2,231.9,274.3z"/>
</g>
</svg>
